<?xml version="1.0" encoding="utf-8"?>
<!-- Generator: Adobe Illustrator 16.0.0, SVG Export Plug-In . SVG Version: 6.00 Build 0)  -->
<!DOCTYPE svg PUBLIC "-//W3C//DTD SVG 1.1//EN" "http://www.w3.org/Graphics/SVG/1.1/DTD/svg11.dtd">
<svg version="1.1" id="Layer_1" xmlns="http://www.w3.org/2000/svg" xmlns:xlink="http://www.w3.org/1999/xlink" x="0px" y="0px"
	 width="195px" height="51.445px" viewBox="1.5 2.125 195 51.445" enable-background="new 1.5 2.125 195 51.445"
	 xml:space="preserve">
<path fill="#FFFFFF" d="M60.428,50.737h3.078v0.84h-4.041v-6.092h0.963V50.737z M67.178,48.894h2.634v-0.831h-2.634v-1.737h3.012
	v-0.84h-3.975v6.092h4.017v-0.84h-3.054V48.894z M76.003,45.485l2.131,6.092h-1.012l-0.469-1.367h-2.527l-0.469,1.367h-1.013
	l2.124-6.092H76.003z M76.365,49.354l-0.971-2.839l-0.98,2.839H76.365z M83.649,48.984l1.465,2.593h-1.078l-1.382-2.486h-1.038
	v2.486h-0.963v-6.092h2.264c0.433,0,0.799,0.084,1.099,0.251c0.299,0.167,0.525,0.387,0.679,0.659
	c0.154,0.271,0.23,0.566,0.23,0.885c0,0.385-0.108,0.733-0.325,1.045C84.383,48.639,84.066,48.858,83.649,48.984z M82.9,48.284
	c0.346,0,0.606-0.1,0.782-0.3c0.175-0.2,0.263-0.427,0.263-0.679s-0.088-0.479-0.263-0.679c-0.176-0.2-0.437-0.301-0.782-0.301
	h-1.284v1.958H82.9z M91.699,49.865l-2.988-4.379h-0.873v6.092h0.955v-4.338l2.988,4.338h0.881v-6.092h-0.963V49.865z
	 M105.323,48.951l-1.655-3.466h-1.276v6.092h0.947v-4.676l1.539,3.161h0.897l1.54-3.145v4.66h0.946v-6.092h-1.259L105.323,48.951z
	 M114.139,45.485l2.131,6.092h-1.013l-0.468-1.367h-2.527l-0.469,1.367h-1.014l2.125-6.092H114.139z M114.502,49.354l-0.971-2.839
	l-0.98,2.839H114.502z M117.744,46.325h1.893v5.252h0.954v-5.252h1.894v-0.84h-4.741V46.325z M128.717,48.054h-2.725v-2.569h-0.963
	v6.092h0.963V48.91h2.725v2.667h0.963v-6.092h-0.963V48.054z M139.138,46.325h1.893v5.252h0.955v-5.252h1.893v-0.84h-4.741V46.325z
	 M151.494,47.383c0.126,0.371,0.189,0.751,0.189,1.14c0,0.39-0.063,0.771-0.189,1.145c-0.126,0.373-0.315,0.709-0.568,1.008
	c-0.252,0.299-0.565,0.538-0.938,0.715c-0.374,0.179-0.807,0.268-1.301,0.268c-0.488,0-0.919-0.089-1.292-0.268
	c-0.374-0.178-0.687-0.416-0.939-0.715c-0.253-0.299-0.442-0.635-0.568-1.008c-0.126-0.374-0.189-0.755-0.189-1.145
	c0-0.39,0.063-0.77,0.189-1.14s0.315-0.703,0.568-1c0.252-0.296,0.565-0.534,0.939-0.712c0.372-0.178,0.804-0.267,1.292-0.267
	c0.494,0,0.927,0.089,1.301,0.267c0.373,0.179,0.686,0.416,0.938,0.712C151.178,46.679,151.367,47.012,151.494,47.383z
	 M150.695,48.523c0-0.285-0.044-0.562-0.131-0.828c-0.088-0.266-0.215-0.506-0.383-0.72c-0.167-0.215-0.376-0.383-0.626-0.506
	c-0.25-0.124-0.539-0.186-0.868-0.186c-0.324,0-0.61,0.062-0.86,0.186c-0.25,0.123-0.458,0.292-0.626,0.506s-0.295,0.454-0.382,0.72
	c-0.088,0.266-0.132,0.542-0.132,0.828c0,0.384,0.077,0.748,0.231,1.091c0.153,0.343,0.378,0.623,0.675,0.839
	c0.296,0.217,0.661,0.325,1.094,0.325c0.439,0,0.807-0.107,1.103-0.325c0.296-0.216,0.522-0.497,0.675-0.839
	C150.618,49.271,150.695,48.907,150.695,48.523z M157.074,49.149h1.736c-0.032,0.504-0.203,0.905-0.51,1.202
	c-0.308,0.296-0.722,0.444-1.243,0.444c-0.334,0-0.627-0.063-0.877-0.189c-0.25-0.126-0.458-0.297-0.625-0.514
	c-0.167-0.217-0.293-0.461-0.379-0.732c-0.084-0.272-0.127-0.55-0.127-0.836c0-0.28,0.041-0.554,0.123-0.823
	c0.083-0.269,0.207-0.511,0.375-0.725c0.167-0.214,0.378-0.386,0.633-0.514c0.255-0.129,0.553-0.194,0.893-0.194
	c0.286,0,0.526,0.04,0.721,0.12c0.194,0.079,0.352,0.179,0.473,0.3c0.121,0.121,0.213,0.24,0.276,0.358
	c0.063,0.118,0.116,0.259,0.161,0.424h0.962c-0.044-0.198-0.096-0.375-0.156-0.535c-0.061-0.159-0.148-0.326-0.264-0.502
	c-0.115-0.175-0.269-0.341-0.461-0.498c-0.192-0.156-0.428-0.283-0.708-0.382c-0.28-0.099-0.618-0.148-1.013-0.148
	c-0.505,0-0.946,0.089-1.321,0.268c-0.376,0.178-0.689,0.417-0.939,0.716s-0.435,0.635-0.555,1.008
	c-0.121,0.373-0.182,0.754-0.182,1.144c0,0.389,0.061,0.77,0.182,1.14c0.12,0.371,0.304,0.706,0.551,1.004
	c0.247,0.299,0.555,0.536,0.926,0.712c0.37,0.176,0.808,0.264,1.313,0.264s0.962-0.107,1.371-0.32
	c0.41-0.214,0.733-0.532,0.971-0.955c0.239-0.423,0.358-0.947,0.358-1.573v-0.436h-2.667V49.149z M163.272,48.894h2.635v-0.831
	h-2.635v-1.737h3.013v-0.84h-3.975v6.092h4.017v-0.84h-3.055V48.894z M168.763,46.325h1.894v5.252h0.954v-5.252h1.893v-0.84h-4.741
	V46.325z M179.735,48.054h-2.725v-2.569h-0.962v6.092h0.962V48.91h2.725v2.667h0.963v-6.092h-0.963V48.054z M184.477,48.894h2.634
	v-0.831h-2.634v-1.737h3.013v-0.84h-3.976v6.092h4.017v-0.84h-3.054V48.894z M194.7,51.577h-1.078l-1.382-2.486h-1.038v2.486h-0.963
	v-6.092h2.264c0.434,0,0.799,0.084,1.099,0.251c0.299,0.167,0.525,0.387,0.679,0.659c0.154,0.271,0.23,0.566,0.23,0.885
	c0,0.385-0.108,0.733-0.325,1.045c-0.217,0.313-0.534,0.532-0.951,0.658L194.7,51.577z M192.487,48.284c0.346,0,0.606-0.1,0.782-0.3
	c0.175-0.2,0.264-0.427,0.264-0.679s-0.088-0.479-0.264-0.679c-0.176-0.2-0.436-0.301-0.782-0.301h-1.285v1.958H192.487z
	 M89.523,38.513h-3.21c-0.252,0-0.458-0.205-0.458-0.457v-1.692c-0.15,0.182-0.315,0.367-0.496,0.555
	c-0.511,0.535-1.184,0.996-2,1.368c-0.824,0.374-1.843,0.564-3.027,0.564c-1.419,0-2.683-0.285-3.759-0.846
	c-1.069-0.559-1.973-1.317-2.687-2.258c-0.706-0.929-1.241-1.983-1.593-3.133c-0.35-1.141-0.527-2.323-0.527-3.512
	c0-1.188,0.177-2.37,0.527-3.513c0.352-1.149,0.888-2.204,1.593-3.133c0.714-0.939,1.617-1.699,2.687-2.258
	c1.077-0.562,2.341-0.846,3.76-0.846c1.188,0,2.208,0.197,3.033,0.585c0.811,0.381,1.48,0.839,1.99,1.36
	c0.182,0.186,0.348,0.369,0.5,0.55v-9.47c0-0.253,0.205-0.458,0.458-0.458h3.21c0.253,0,0.457,0.205,0.457,0.458v25.679
	C89.98,38.309,89.776,38.513,89.523,38.513z M85.789,29.101c0-1.039-0.188-2.04-0.56-2.974c-0.363-0.912-0.918-1.673-1.652-2.263
	c-0.713-0.572-1.623-0.862-2.704-0.862c-1.098,0-1.989,0.283-2.724,0.864c-0.744,0.589-1.305,1.35-1.667,2.26
	c-0.371,0.932-0.559,1.933-0.559,2.973c0,1.019,0.188,2.015,0.56,2.958c0.362,0.921,0.922,1.686,1.666,2.275
	c0.735,0.582,1.625,0.864,2.724,0.864c1.097,0,1.981-0.282,2.704-0.862c0.732-0.589,1.288-1.355,1.651-2.277
	C85.601,31.114,85.789,30.119,85.789,29.101z M67.739,33.792c-0.708,1.487-1.761,2.713-3.129,3.644
	c-1.377,0.938-3.089,1.415-5.088,1.415s-3.711-0.476-5.089-1.415c-1.367-0.93-2.42-2.157-3.128-3.644
	c-0.703-1.474-1.059-3.052-1.059-4.69c0-1.662,0.356-3.246,1.059-4.708c0.708-1.475,1.76-2.695,3.127-3.627
	c1.379-0.938,3.091-1.414,5.089-1.414s3.709,0.476,5.088,1.414c1.369,0.934,2.421,2.154,3.128,3.627
	c0.703,1.463,1.059,3.047,1.059,4.708C68.797,30.739,68.441,32.317,67.739,33.792z M64.605,29.102c0-1.06-0.198-2.062-0.589-2.98
	c-0.383-0.9-0.959-1.645-1.713-2.213c-0.737-0.555-1.674-0.837-2.782-0.837c-1.087,0-2.019,0.282-2.768,0.839
	c-0.763,0.567-1.345,1.312-1.727,2.211c-0.39,0.918-0.588,1.921-0.588,2.98c0,1.037,0.198,2.035,0.589,2.965
	c0.383,0.91,0.963,1.659,1.727,2.225c0.748,0.556,1.679,0.838,2.768,0.838c1.109,0,2.045-0.281,2.782-0.837
	c0.753-0.567,1.329-1.316,1.711-2.227C64.406,31.136,64.605,30.138,64.605,29.102z M110.436,30.539H98.001
	c0.099,0.764,0.311,1.478,0.632,2.126c0.379,0.769,0.922,1.391,1.617,1.849c0.687,0.454,1.522,0.684,2.484,0.684
	c0.844,0,1.528-0.136,2.032-0.403c0.52-0.275,0.934-0.595,1.231-0.952c0.306-0.369,0.578-0.839,0.807-1.4
	c0.07-0.172,0.237-0.285,0.423-0.285h3.006c0.144,0,0.279,0.067,0.365,0.182c0.086,0.115,0.114,0.263,0.075,0.401
	c-0.231,0.812-0.505,1.522-0.811,2.112c-0.312,0.6-0.77,1.21-1.362,1.816c-0.602,0.613-1.376,1.134-2.302,1.55
	c-0.935,0.419-2.101,0.631-3.465,0.631c-1.527,0-2.874-0.283-4.004-0.841c-1.128-0.557-2.069-1.324-2.796-2.277
	c-0.715-0.939-1.257-1.993-1.61-3.133c-0.35-1.13-0.527-2.306-0.527-3.496c0-1.166,0.171-2.334,0.509-3.475
	c0.341-1.152,0.877-2.213,1.595-3.154c0.727-0.952,1.654-1.718,2.759-2.277c1.108-0.56,2.434-0.843,3.939-0.843
	c1.606,0,3.049,0.375,4.289,1.112c1.243,0.742,2.234,1.852,2.946,3.299c0.704,1.43,1.061,3.237,1.061,5.372v0.947
	C110.894,30.334,110.69,30.539,110.436,30.539z M106.806,27.123c-0.083-0.872-0.299-1.596-0.645-2.158
	c-0.405-0.657-0.924-1.152-1.543-1.471c-0.63-0.326-1.31-0.49-2.021-0.49c-1.303,0-2.335,0.403-3.154,1.232
	c-0.722,0.731-1.188,1.701-1.39,2.887H106.806z M190.424,38.053c0,0.253,0.205,0.458,0.457,0.458h3.21
	c0.252,0,0.457-0.204,0.457-0.458v-11.52c-0.001-1.324-0.26-2.539-0.771-3.61c-0.52-1.086-1.286-1.962-2.277-2.602
	c-0.996-0.643-2.204-0.969-3.592-0.969c-1.13,0-2.089,0.206-2.851,0.611c-0.752,0.402-1.341,0.869-1.75,1.389
	c-0.063,0.08-0.123,0.157-0.18,0.231v-9.207c0-0.253-0.204-0.458-0.458-0.458h-3.209c-0.253,0-0.457,0.205-0.457,0.458v25.677
	c0,0.253,0.204,0.458,0.457,0.458h3.209c0.253,0,0.458-0.205,0.458-0.458V27.952c0-0.864,0.144-1.692,0.428-2.46
	c0.274-0.739,0.697-1.344,1.259-1.796c0.544-0.438,1.279-0.659,2.18-0.659c1.129,0,1.96,0.333,2.539,1.02
	c0.599,0.711,0.889,1.587,0.889,2.679V38.053z M174.832,34.932c-0.87,0.131-1.553,0.198-2.026,0.198
	c-0.832,0-1.461-0.174-1.869-0.517c-0.39-0.328-0.58-0.86-0.58-1.626V23.24h3.901c0.253,0,0.458-0.205,0.458-0.458v-2.635
	c0-0.253-0.205-0.458-0.458-0.458h-3.901v-4.036c0-0.253-0.205-0.457-0.458-0.457h-3.209c-0.253,0-0.457,0.204-0.457,0.457v4.036
	h-2.753c-0.253,0-0.458,0.205-0.458,0.458v2.635c0,0.253,0.205,0.458,0.458,0.458h2.753v9.747c0,1.829,0.516,3.278,1.533,4.308
	c1.02,1.032,2.533,1.555,4.498,1.555c0.743,0,1.656-0.093,2.714-0.277c0.219-0.039,0.378-0.228,0.378-0.451v-2.736
	c0-0.133-0.058-0.26-0.159-0.346C175.097,34.951,174.962,34.914,174.832,34.932z M138.58,12.595h-4.358
	c-0.175,0-0.333,0.099-0.41,0.255l-6.922,14.036l-6.955-14.037c-0.077-0.156-0.237-0.254-0.41-0.254h-4.357
	c-0.253,0-0.457,0.204-0.457,0.457v25.002c0,0.253,0.204,0.458,0.457,0.458h3.243c0.253,0,0.458-0.205,0.458-0.458V19.787
	l6.026,12.052c0.078,0.155,0.236,0.253,0.409,0.253h3.142c0.173,0,0.331-0.097,0.409-0.252l6.026-11.994v18.207
	c0,0.253,0.205,0.458,0.458,0.458h3.244c0.253,0,0.457-0.204,0.457-0.458V13.052C139.037,12.8,138.833,12.595,138.58,12.595z
	 M161.065,20.148v17.908c0,0.252-0.204,0.457-0.457,0.457h-3.209c-0.253,0-0.458-0.205-0.458-0.457v-1.693
	c-0.15,0.183-0.316,0.367-0.496,0.556c-0.51,0.535-1.183,0.995-1.999,1.368c-0.824,0.374-1.843,0.564-3.028,0.564
	c-1.418,0-2.683-0.285-3.759-0.846c-1.069-0.559-1.974-1.318-2.687-2.258c-0.705-0.928-1.24-1.982-1.593-3.133
	c-0.349-1.141-0.526-2.322-0.526-3.512s0.177-2.371,0.526-3.513c0.353-1.15,0.888-2.205,1.593-3.133
	c0.713-0.939,1.617-1.699,2.687-2.258c1.076-0.562,2.341-0.846,3.759-0.846c1.189,0,2.209,0.197,3.033,0.585
	c0.812,0.381,1.482,0.839,1.991,1.36c0.182,0.186,0.348,0.37,0.5,0.55v-1.699c0-0.253,0.205-0.458,0.458-0.458h3.209
	C160.862,19.69,161.066,19.895,161.065,20.148z M156.873,29.101c0-1.039-0.188-2.04-0.559-2.974
	c-0.363-0.912-0.918-1.673-1.652-2.263c-0.713-0.572-1.623-0.862-2.704-0.862c-1.082,0-1.998,0.291-2.723,0.864
	c-0.743,0.589-1.304,1.35-1.666,2.26c-0.371,0.932-0.559,1.933-0.559,2.973c0,1.019,0.188,2.015,0.56,2.958
	c0.362,0.921,0.922,1.686,1.666,2.275c0.734,0.582,1.625,0.864,2.723,0.864c1.096,0,1.981-0.282,2.704-0.862
	c0.733-0.589,1.288-1.355,1.651-2.277C156.685,31.114,156.873,30.119,156.873,29.101z M49.271,43.182
	c-0.521,0.776-1.088,1.519-1.697,2.226c-0.139,0.162-0.291,0.312-0.434,0.469c0.02,0.024,0.034,0.052,0.055,0.075
	c0.47,0.522,1.116,0.828,1.814,0.859c0.03,0.001,0.059,0.003,0.088,0.005l0.032,0.002c0.739,0,1.446-0.319,1.941-0.876
	c0.005-0.005,0.01-0.011,0.015-0.016c0.087-0.095,0.189-0.169,0.299-0.223c0.125-0.062,0.264-0.097,0.412-0.102
	c0.01,0,0.02,0,0.03,0c0.003,0,0.007,0,0.011,0c0.215,0.002,0.413,0.073,0.575,0.189c0.333-0.478,0.656-0.964,0.957-1.465
	l-0.633-0.176L49.271,43.182z M11.002,46.558c0.093,0,0.183-0.005,0.278-0.016c0.622-0.064,1.203-0.358,1.634-0.826
	c0.02-0.022,0.036-0.046,0.055-0.069c-0.074-0.083-0.152-0.162-0.225-0.247c-1.244-1.444-2.312-3.041-3.169-4.762
	c-1.538-3.082-2.404-6.552-2.404-10.224c0-12.677,10.313-22.99,22.99-22.99c6.556,0,12.479,2.758,16.671,7.176l2.909-2.851
	c-4.932-5.171-11.887-8.398-19.58-8.398c-14.923,0-27.064,12.14-27.064,27.063c0,5.583,1.704,10.773,4.613,15.087
	c0.173-0.121,0.373-0.184,0.572-0.184c0.281,0,0.56,0.117,0.758,0.344C9.537,46.232,10.252,46.558,11.002,46.558z M48.967,47.816
	c-1-0.045-1.894-0.495-2.521-1.191c-0.315-0.352-0.563-0.765-0.722-1.219c-0.066-0.188-0.117-0.383-0.152-0.583l-0.038-0.147
	l-3.068-11.892c-0.027-0.154-0.065-0.304-0.115-0.449c-0.41-1.2-1.544-2.064-2.884-2.064c-1.21,0-2.252,0.707-2.745,1.729
	c-0.074,0.153-0.137,0.313-0.185,0.481l-6.312,16.468l-6.892-16.591c-0.074-0.298-0.192-0.579-0.347-0.834
	c-0.534-0.884-1.501-1.477-2.609-1.477c-1.249,0-2.32,0.751-2.792,1.824c-0.142,0.325-0.227,0.676-0.249,1.046l-2.802,11.773h-0.001
	c-0.135,0.652-0.448,1.238-0.883,1.71c-0.579,0.628-1.374,1.052-2.27,1.145c-0.125,0.014-0.253,0.021-0.382,0.021
	c-1.086,0-2.057-0.481-2.718-1.239c1.138,1.561,2.439,2.995,3.878,4.279c0.264,0.236,0.531,0.469,0.803,0.694
	c0.021,0.017,0.042,0.031,0.063,0.049c0.551,0.34,1.197,0.54,1.892,0.54c1.378,0,2.575-0.772,3.183-1.908
	c0.056-0.104,0.106-0.212,0.152-0.323l0.262-1.14l2.471-10.75l6.757,15.513c0.794,0.082,1.601,0.127,2.417,0.127
	c0.845,0,1.68-0.048,2.501-0.138l6.568-15.502l2.583,10.976l0.169,0.717c0.063,0.183,0.138,0.36,0.228,0.527
	c0.61,1.132,1.804,1.901,3.18,1.901c0.686,0,1.324-0.196,1.87-0.526c0.022-0.013,0.044-0.026,0.066-0.04
	c0.258-0.212,0.512-0.43,0.762-0.651c1.38-1.222,2.63-2.587,3.737-4.064c-0.662,0.746-1.624,1.217-2.697,1.217
	C49.074,47.824,49.022,47.818,48.967,47.816z M29.084,17.386c0-0.681-0.552-1.232-1.232-1.232c-0.6,0-1.076,0.437-1.186,1.004
	h-3.562c-0.112-0.792-0.785-1.403-1.608-1.403c-0.901,0-1.631,0.73-1.631,1.631s0.73,1.631,1.631,1.631
	c0.823,0,1.496-0.611,1.608-1.403h3.562c0.11,0.567,0.586,1.004,1.186,1.004C28.532,18.619,29.084,18.067,29.084,17.386z
	 M46.505,31.773L46.505,31.773L46.505,31.773c-0.15,0.088-0.314,0.152-0.5,0.152c-0.554,0-1.004-0.449-1.004-1.003
	c0-0.073,0.027-0.137,0.042-0.206l-4.401-3.182c-0.292,0.336-0.719,0.553-1.2,0.553c-0.839,0-1.519-0.649-1.584-1.471l-4.202,0.007
	c-0.001,0.007,0.002,0.014,0.001,0.021c-0.086,0.624-0.662,1.06-1.286,0.975c-0.281-0.039-0.515-0.186-0.689-0.383l-3.652,2.104
	c0.015,0.117,0.02,0.236,0.003,0.358c-0.104,0.752-0.797,1.278-1.549,1.177c-0.595-0.082-1.042-0.535-1.155-1.093l-6.001-1.702
	c-0.25,0.689-0.904,1.185-1.679,1.185c-0.99,0-1.792-0.802-1.792-1.792c0-0.287,0.073-0.554,0.193-0.793l-2.363-1.421
	c-0.377,0.198-0.815,0.289-1.27,0.227c-1.156-0.158-1.964-1.223-1.806-2.378c0.158-1.156,1.224-1.965,2.38-1.808
	c0.125,0.017,0.243,0.05,0.358,0.087l3.723-4.968c-0.355-0.31-0.585-0.761-0.585-1.27c0-0.933,0.755-1.688,1.688-1.688
	c0.502,0,0.949,0.224,1.258,0.572l4.658-3.37c-0.132-0.201-0.228-0.427-0.228-0.686c0-0.706,0.572-1.278,1.278-1.278
	c0.607,0,1.092,0.432,1.222,1l7.364-0.295c0.157-0.504,0.641-0.847,1.182-0.773c0.602,0.083,1.024,0.64,0.942,1.241
	c-0.02,0.147-0.07,0.282-0.141,0.402l4.355,4.664c0.203-0.116,0.435-0.184,0.684-0.15c0.599,0.083,1.018,0.635,0.936,1.235
	c-0.022,0.165-0.086,0.311-0.171,0.442l2.013,1.747c0.315-0.268,0.734-0.409,1.177-0.349c0.823,0.113,1.4,0.873,1.288,1.696
	c-0.096,0.699-0.658,1.214-1.328,1.289l-0.51,3.722c0.351,0.156,0.598,0.505,0.598,0.914c0,0.331-0.17,0.609-0.417,0.792
	l1.455,3.684c0.071-0.016,0.139-0.043,0.215-0.043c0.554,0,1.004,0.449,1.004,1.004C47.009,31.291,46.801,31.599,46.505,31.773z
	 M35.985,21.394l3.81-4.797c-0.207-0.231-0.325-0.538-0.279-0.87c0.025-0.185,0.106-0.343,0.208-0.484L35.4,10.614
	c-0.129,0.093-0.278,0.149-0.438,0.18l0.789,2.866c0.563,0.046,1.009,0.503,1.009,1.078c0,0.605-0.49,1.095-1.095,1.095
	c-0.179,0-0.341-0.053-0.491-0.129l-3.18,3.596c0.307,0.394,0.462,0.904,0.389,1.437c-0.018,0.13-0.048,0.256-0.09,0.375l2.26,1.021
	c0.211-0.519,0.732-0.859,1.312-0.78C35.909,21.358,35.943,21.383,35.985,21.394z M31.587,12.325l2.239-2.047
	c-0.075-0.126-0.12-0.263-0.14-0.413l-7.304,0.293c-0.023,0.157-0.069,0.302-0.144,0.436l2.709,1.772
	c0.313-0.396,0.792-0.654,1.336-0.654C30.809,11.712,31.273,11.953,31.587,12.325z M19.441,27.474c0,0.057-0.012,0.11-0.017,0.166
	l5.891,1.665c0.066-0.436,0.333-0.791,0.694-0.991l-0.775-3.341c-0.137,0.029-0.279,0.047-0.425,0.047
	c-1.109,0-2.008-0.899-2.008-2.008c0-0.137,0.014-0.27,0.04-0.399l-4.33-0.968c-0.179,0.421-0.596,0.717-1.083,0.717
	c-0.379,0-0.702-0.192-0.916-0.471l-1.809,0.848c0.098,0.296,0.139,0.615,0.094,0.944c-0.072,0.522-0.334,0.966-0.701,1.289
	l2.208,1.328c0.329-0.376,0.806-0.618,1.344-0.618C18.638,25.682,19.441,26.484,19.441,27.474z M45.24,30.295
	c0.042-0.051,0.085-0.095,0.136-0.137l-1.462-3.703c-0.056,0.01-0.107,0.034-0.166,0.034c-0.554,0-1.003-0.449-1.003-1.004
	c0-0.538,0.427-0.97,0.958-0.994l0.502-3.663c-0.774-0.155-1.306-0.883-1.198-1.676c0.03-0.219,0.108-0.419,0.219-0.595
	l-2.041-1.771c-0.211,0.135-0.464,0.211-0.733,0.174c-0.104-0.014-0.192-0.059-0.283-0.099l-3.753,4.726
	c0.365,0.262,0.588,0.702,0.522,1.178c-0.094,0.688-0.727,1.168-1.414,1.075c-0.628-0.087-1.062-0.63-1.062-1.247l-2.376-1.073
	c-0.393,0.601-1.103,0.959-1.861,0.855c-1.049-0.143-1.783-1.109-1.639-2.159c0.144-1.048,1.11-1.782,2.16-1.638
	c0.352,0.048,0.664,0.195,0.923,0.401l3.155-3.567c-0.15-0.188-0.253-0.415-0.253-0.674c0-0.473,0.304-0.867,0.724-1.02
	l-0.811-2.946c-0.128-0.034-0.245-0.083-0.349-0.156l-2.295,2.099c0.099,0.217,0.158,0.455,0.158,0.709
	c0,0.945-0.767,1.711-1.712,1.711s-1.712-0.766-1.712-1.711c0-0.238,0.049-0.464,0.136-0.669l-2.763-1.806
	c-0.221,0.184-0.495,0.308-0.805,0.308c-0.278,0-0.521-0.107-0.731-0.258l-4.723,3.416c0.109,0.223,0.176,0.471,0.176,0.736
	c0,0.933-0.756,1.688-1.688,1.688c-0.262,0-0.507-0.064-0.728-0.171l-3.67,4.907c0.308,0.182,0.555,0.444,0.735,0.748l1.8-0.843
	c-0.025-0.096-0.059-0.189-0.059-0.292c0-0.649,0.526-1.175,1.175-1.175c0.649,0,1.175,0.526,1.175,1.175
	c0,0.003-0.002,0.007-0.002,0.01l4.385,0.98c0.317-0.691,1.011-1.173,1.822-1.173c1.109,0,2.008,0.899,2.008,2.008
	c0,0.801-0.472,1.486-1.149,1.809l0.776,3.344c0.134-0.023,0.272-0.032,0.414-0.013c0.464,0.063,0.84,0.352,1.038,0.739l3.556-2.049
	c-0.053-0.16-0.081-0.329-0.056-0.507c0.086-0.623,0.661-1.06,1.286-0.975c0.458,0.063,0.811,0.392,0.935,0.808l4.265-0.007
	c0.153-0.723,0.793-1.267,1.562-1.267c0.882,0,1.597,0.715,1.597,1.598c0,0.236-0.055,0.459-0.147,0.661L45.24,30.295z"/>
</svg>
