<svg width="1202" height="600" viewBox="0 0 1202 600" fill="none" xmlns="http://www.w3.org/2000/svg">
<path d="M356.95 441.095V404.236H362.897V436.015H381.914V441.095H356.95V441.095Z" fill="#496362"/>
<path d="M398.646 441.095V404.236H423.203V409.316H404.592V419.829H420.867V424.857H404.592V436.015H423.46V441.095H398.646V441.095Z" fill="#496362"/>
<path d="M438.358 441.095L451.48 404.236H459.107L472.274 441.095H466.02L463.124 432.827H447.514L444.616 441.095H438.358V441.095ZM449.291 427.644H461.345L455.345 410.459L449.291 427.644Z" fill="#496362"/>
<path d="M487.834 441.095V404.236H501.817C504.492 404.236 506.755 404.745 508.603 405.755C510.45 406.768 511.849 408.099 512.798 409.74C513.747 411.381 514.221 413.168 514.221 415.094C514.221 417.422 513.552 419.53 512.213 421.42C510.871 423.316 508.916 424.641 506.34 425.405L515.391 441.095H508.73L500.19 426.053H493.78V441.095H487.834V441.095ZM501.716 409.313H493.78V421.168H501.716C503.851 421.168 505.459 420.562 506.546 419.35C507.631 418.138 508.173 416.768 508.173 415.244C508.173 413.719 507.631 412.346 506.546 411.134C505.461 409.922 503.851 409.313 501.716 409.313Z" fill="#496362"/>
<path d="M532.225 441.095V404.236H537.615L556.07 430.735V404.236H562.019V441.095H556.578L538.12 414.845V441.095H532.225V441.095Z" fill="#496362"/>
<path d="M622.127 441.095V404.236H630.009L640.229 425.206L650.603 404.236H658.382V441.095H652.535V412.9L643.026 431.93H637.484L627.978 412.803V441.095H622.127V441.095Z" fill="#496362"/>
<path d="M673.939 441.095L687.061 404.236H694.688L707.855 441.095H701.601L698.705 432.827H683.095L680.196 441.095H673.939V441.095ZM684.872 427.644H696.925L690.925 410.459L684.872 427.644Z" fill="#496362"/>
<path d="M728.652 441.095V409.313H716.957V404.233H746.243V409.313H734.548V441.092H728.652V441.095Z" fill="#496362"/>
<path d="M761.961 441.095V404.236H767.907V419.776H784.738V404.236H790.687V441.095H784.738V424.957H767.907V441.095H761.961V441.095Z" fill="#496362"/>
<path d="M860.807 441.095V409.313H849.112V404.233H878.398V409.313H866.703V441.092H860.807V441.095Z" fill="#496362"/>
<path d="M908.096 441.591C905.082 441.591 902.418 441.054 900.116 439.972C897.811 438.893 895.876 437.451 894.316 435.641C892.757 433.831 891.587 431.797 890.811 429.539C890.031 427.281 889.641 424.973 889.641 422.616C889.641 420.255 890.031 417.956 890.811 415.717C891.587 413.473 892.757 411.458 894.316 409.662C895.876 407.872 897.808 406.433 900.116 405.354C902.418 404.274 905.082 403.735 908.096 403.735C911.147 403.735 913.825 404.274 916.133 405.354C918.435 406.433 920.37 407.869 921.93 409.662C923.489 411.455 924.659 413.473 925.438 415.717C926.215 417.958 926.608 420.258 926.608 422.616C926.608 424.973 926.215 427.281 925.438 429.539C924.659 431.797 923.489 433.831 921.93 435.641C920.37 437.451 918.438 438.895 916.133 439.972C913.825 441.054 911.147 441.591 908.096 441.591ZM908.096 436.264C910.808 436.264 913.082 435.611 914.91 434.296C916.741 432.984 918.133 431.291 919.082 429.216C920.032 427.14 920.506 424.94 920.506 422.616C920.506 420.889 920.232 419.217 919.693 417.607C919.15 415.996 918.362 414.546 917.328 413.251C916.294 411.953 915.006 410.932 913.464 410.188C911.921 409.438 910.133 409.067 908.099 409.067C906.099 409.067 904.328 409.441 902.785 410.188C901.243 410.935 899.955 411.956 898.921 413.251C897.887 414.546 897.099 415.996 896.556 417.607C896.017 419.217 895.743 420.889 895.743 422.616C895.743 424.94 896.218 427.14 897.17 429.216C898.116 431.291 899.506 432.984 901.339 434.296C903.167 435.608 905.421 436.264 908.096 436.264Z" fill="#496362"/>
<path d="M959.707 441.591C956.589 441.591 953.882 441.062 951.597 439.997C949.306 438.934 947.402 437.501 945.877 435.688C944.351 433.881 943.216 431.853 942.47 429.611C941.724 427.37 941.351 425.07 941.351 422.715C941.351 420.355 941.724 418.047 942.47 415.792C943.216 413.534 944.36 411.5 945.902 409.69C947.444 407.88 949.377 406.433 951.702 405.356C954.021 404.277 956.741 403.738 959.863 403.738C962.303 403.738 964.388 404.036 966.117 404.634C967.846 405.232 969.304 406.004 970.49 406.95C971.677 407.897 972.626 408.901 973.338 409.964C974.049 411.026 974.592 412.039 974.965 413.002C975.338 413.968 975.66 415.044 975.931 416.24H969.984C969.71 415.246 969.383 414.391 968.99 413.675C968.6 412.961 968.032 412.239 967.287 411.508C966.538 410.777 965.566 410.174 964.363 409.693C963.159 409.211 961.676 408.968 959.914 408.968C957.812 408.968 955.973 409.361 954.397 410.141C952.82 410.919 951.515 411.956 950.481 413.254C949.447 414.549 948.676 416.01 948.168 417.637C947.659 419.265 947.405 420.925 947.405 422.618C947.405 424.345 947.668 426.028 948.193 427.674C948.718 429.318 949.498 430.796 950.532 432.107C951.563 433.422 952.851 434.457 954.394 435.22C955.936 435.984 957.744 436.366 959.809 436.366C963.032 436.366 965.589 435.47 967.49 433.676C969.388 431.883 970.439 429.459 970.64 426.404H959.911V421.722H976.386V424.362C976.386 428.147 975.648 431.319 974.174 433.876C972.702 436.435 970.702 438.359 968.174 439.654C965.648 440.946 962.826 441.591 959.707 441.591Z" fill="#496362"/>
<path d="M992.25 441.095V404.236H1016.81V409.316H998.197V419.829H1014.47V424.857H998.197V436.015H1017.06V441.095H992.25V441.095Z" fill="#496362"/>
<path d="M1043.81 441.095V409.313H1032.12V404.233H1061.4V409.313H1049.71V441.092H1043.81V441.095Z" fill="#496362"/>
<path d="M1077.12 441.095V404.236H1083.06V419.776H1099.89V404.236H1105.84V441.095H1099.89V424.957H1083.06V441.095H1077.12V441.095Z" fill="#496362"/>
<path d="M1123.24 441.095V404.236H1147.8V409.316H1129.19V419.829H1145.46V424.857H1129.19V436.015H1148.05V441.095H1123.24V441.095Z" fill="#496362"/>
<path d="M1164.78 441.095V404.236H1178.77C1181.44 404.236 1183.7 404.745 1185.55 405.755C1187.4 406.768 1188.8 408.099 1189.75 409.74C1190.69 411.381 1191.17 413.168 1191.17 415.094C1191.17 417.422 1190.5 419.53 1189.16 421.42C1187.82 423.316 1185.86 424.641 1183.29 425.405L1192.34 441.095H1185.68L1177.14 426.053H1170.73V441.095H1164.78V441.095ZM1178.66 409.313H1170.73V421.168H1178.66C1180.8 421.168 1182.41 420.562 1183.49 419.35C1184.58 418.138 1185.12 416.768 1185.12 415.244C1185.12 413.719 1184.58 412.346 1183.49 411.134C1182.41 409.922 1180.8 409.313 1178.66 409.313Z" fill="#496362"/>
<path d="M542.629 201.12H522.801C521.241 201.12 519.976 202.357 519.976 203.887V261.194C519.041 260.101 518.012 258.994 516.891 257.868C513.741 254.713 509.606 251.943 504.594 249.635C499.504 247.286 493.201 246.096 485.859 246.096C477.096 246.096 469.286 247.817 462.636 251.215C456.031 254.6 450.449 259.193 446.039 264.877C441.683 270.5 438.373 276.882 436.197 283.836C434.036 290.751 432.943 297.902 432.943 305.094C432.943 312.288 434.039 319.439 436.197 326.346C438.373 333.306 441.683 339.684 446.039 345.304C450.446 350.994 456.031 355.587 462.636 358.966C469.283 362.364 477.094 364.086 485.857 364.086C493.176 364.086 499.47 362.937 504.56 360.671C509.597 358.421 513.753 355.635 516.911 352.397C518.021 351.257 519.044 350.136 519.973 349.037V359.276C519.973 360.806 521.239 362.043 522.798 362.043H542.626C544.185 362.043 545.451 360.806 545.451 359.276V203.887C545.454 202.357 544.191 201.12 542.629 201.12ZM519.561 305.088C519.561 311.251 518.397 317.269 516.103 322.987C513.863 328.565 510.43 333.2 505.902 336.765C501.439 340.276 495.975 341.981 489.198 341.981C482.416 341.981 476.913 340.271 472.376 336.751C467.783 333.187 464.319 328.557 462.085 322.984C459.791 317.275 458.627 311.253 458.627 305.085C458.627 298.79 459.788 292.735 462.079 287.093C464.314 281.583 467.777 276.981 472.373 273.417C476.913 269.9 482.416 268.187 489.196 268.187C495.871 268.187 501.492 269.944 505.896 273.403C510.428 276.97 513.863 281.578 516.103 287.093C518.4 292.746 519.561 298.801 519.561 305.088Z" fill="#71B832"/>
<path d="M388.73 254.65C380.211 248.974 369.637 246.096 357.298 246.096C344.956 246.096 334.379 248.974 325.862 254.652C317.413 260.292 310.913 267.675 306.54 276.599C302.198 285.452 300 295.037 300 305.091C300 315 302.198 324.55 306.537 333.472C310.913 342.471 317.416 349.892 325.862 355.524C334.371 361.202 344.947 364.08 357.298 364.08C369.645 364.08 380.222 361.202 388.73 355.524C397.18 349.887 403.683 342.468 408.056 333.472C412.395 324.55 414.593 315 414.593 305.091C414.593 295.037 412.392 285.452 408.053 276.599C403.683 267.68 397.183 260.297 388.73 254.65ZM374.484 336.507C369.931 339.87 364.148 341.571 357.298 341.571C350.572 341.571 344.82 339.864 340.199 336.496C335.487 333.068 331.899 328.538 329.534 323.031C327.119 317.405 325.893 311.367 325.893 305.091C325.893 298.679 327.116 292.611 329.529 287.057C331.89 281.614 335.481 277.111 340.196 273.677C344.823 270.309 350.577 268.602 357.295 268.602C364.14 268.602 369.925 270.307 374.482 273.666C379.134 277.103 382.694 281.608 385.061 287.057C387.473 292.616 388.697 298.682 388.697 305.091C388.697 311.364 387.471 317.4 385.055 323.031C382.694 328.543 379.134 333.076 374.484 336.507Z" fill="#71B832"/>
<path d="M668.089 272.789C663.693 264.031 657.569 257.314 649.888 252.823C642.232 248.36 633.32 246.093 623.396 246.093C614.093 246.093 605.91 247.809 599.062 251.196C592.24 254.578 586.505 259.21 582.019 264.971C577.584 270.669 574.268 277.089 572.163 284.06C570.079 290.964 569.022 298.037 569.022 305.088C569.022 312.288 570.118 319.406 572.279 326.244C574.457 333.145 577.805 339.524 582.226 345.202C586.717 350.974 592.528 355.612 599.5 358.986C606.477 362.364 614.797 364.077 624.232 364.077C632.659 364.077 639.859 362.791 645.634 360.256C651.354 357.743 656.139 354.588 659.854 350.878C663.515 347.214 666.346 343.517 668.27 339.889C670.162 336.322 671.849 332.022 673.278 327.11C673.521 326.274 673.349 325.377 672.815 324.683C672.284 323.991 671.448 323.584 670.561 323.584H651.99C650.843 323.584 649.809 324.265 649.374 325.308C647.961 328.704 646.283 331.551 644.391 333.782C642.554 335.943 639.995 337.88 636.786 339.543C633.67 341.162 629.447 341.984 624.232 341.984C618.288 341.984 613.127 340.592 608.887 337.844C604.599 335.068 601.24 331.308 598.901 326.656C596.921 322.729 595.61 318.412 594.997 313.788H671.815C673.377 313.788 674.64 312.551 674.64 311.021V305.293C674.64 292.375 672.436 281.442 668.089 272.789ZM595.322 293.117C596.568 285.942 599.449 280.075 603.91 275.647C608.969 270.63 615.342 268.19 623.393 268.19C627.786 268.19 631.984 269.186 635.874 271.156C639.698 273.088 642.905 276.085 645.408 280.058C647.54 283.459 648.877 287.843 649.388 293.117H595.322Z" fill="#71B832"/>
<path d="M1186.64 267.703C1183.42 261.128 1178.69 255.831 1172.57 251.96C1166.42 248.069 1158.96 246.096 1150.38 246.096C1143.4 246.096 1137.48 247.339 1132.77 249.793C1128.12 252.223 1124.48 255.048 1121.96 258.197C1121.57 258.681 1121.2 259.149 1120.85 259.6V203.887C1120.85 202.357 1119.59 201.12 1118.03 201.12H1098.2C1096.64 201.12 1095.38 202.357 1095.38 203.887V359.265C1095.38 360.795 1096.64 362.032 1098.2 362.032H1118.03C1119.59 362.032 1120.85 360.795 1120.85 359.265V298.137C1120.85 292.907 1121.74 287.898 1123.5 283.249C1125.19 278.777 1127.81 275.119 1131.28 272.382C1134.64 269.737 1139.18 268.394 1144.75 268.394C1151.72 268.394 1156.86 270.412 1160.43 274.565C1164.13 278.866 1165.92 284.168 1165.92 290.773V359.262C1165.92 360.793 1167.19 362.03 1168.75 362.03H1188.58C1190.14 362.03 1191.4 360.793 1191.4 359.262V289.55C1191.4 281.536 1189.79 274.186 1186.64 267.703Z" fill="#F08128"/>
<path d="M1069.6 340.373C1064.23 341.167 1060.01 341.571 1057.08 341.571C1051.95 341.571 1048.06 340.52 1045.55 338.442C1043.13 336.455 1041.96 333.234 1041.96 328.599V269.623H1066.06C1067.62 269.623 1068.88 268.386 1068.88 266.856V250.911C1068.88 249.381 1067.62 248.144 1066.06 248.144H1041.96V223.72C1041.96 222.19 1040.7 220.953 1039.14 220.953H1019.31C1017.75 220.953 1016.48 222.19 1016.48 223.72V248.144H999.479C997.917 248.144 996.654 249.381 996.654 250.911V266.856C996.654 268.386 997.917 269.623 999.479 269.623H1016.48V328.601C1016.48 339.668 1019.67 348.437 1025.96 354.669C1032.25 360.912 1041.6 364.077 1053.74 364.077C1058.33 364.077 1063.97 363.513 1070.51 362.4C1071.86 362.168 1072.85 361.02 1072.85 359.675V343.116C1072.85 342.31 1072.49 341.544 1071.86 341.018C1071.24 340.487 1070.41 340.26 1069.6 340.373Z" fill="#F08128"/>
<path d="M845.666 205.207H818.744C817.668 205.207 816.685 205.805 816.213 206.751L773.449 291.686L730.488 206.746C730.011 205.805 729.028 205.207 727.957 205.207H701.039C699.476 205.207 698.214 206.444 698.214 207.975V359.265C698.214 360.795 699.476 362.032 701.039 362.032H721.073C722.635 362.032 723.898 360.795 723.898 359.265V248.728L761.122 321.658C761.602 322.596 762.579 323.189 763.65 323.189H783.06C784.128 323.189 785.105 322.599 785.585 321.664L822.812 249.085V359.262C822.812 360.793 824.075 362.03 825.637 362.03H845.674C847.236 362.03 848.499 360.793 848.499 359.262V207.975C848.49 206.447 847.228 205.207 845.666 205.207Z" fill="#F08128"/>
<path d="M981.742 248.144H961.914C960.351 248.144 959.089 249.381 959.089 250.911V261.194C958.154 260.104 957.125 258.994 956.001 257.868C952.857 254.713 948.718 251.943 943.704 249.635C938.616 247.286 932.314 246.096 924.969 246.096C916.207 246.096 908.396 247.817 901.746 251.215C895.138 254.6 889.556 259.196 885.149 264.877C880.796 270.495 877.485 276.876 875.31 283.836C873.149 290.745 872.056 297.896 872.056 305.094C872.056 312.294 873.152 319.442 875.31 326.346C877.488 333.311 880.799 339.69 885.149 345.304C889.556 350.991 895.138 355.587 901.746 358.966C908.396 362.364 916.207 364.086 924.969 364.086C932.292 364.086 938.583 362.937 943.673 360.671C948.713 358.418 952.868 355.634 956.021 352.397C957.134 351.257 958.156 350.136 959.086 349.035V359.276C959.086 360.806 960.349 362.043 961.911 362.043H981.739C983.301 362.043 984.564 360.806 984.564 359.276V250.911C984.566 249.381 983.304 248.144 981.742 248.144ZM958.671 305.088C958.671 311.251 957.507 317.269 955.213 322.987C952.973 328.565 949.54 333.198 945.015 336.765C940.552 340.276 935.085 341.981 928.311 341.981C921.529 341.981 916.026 340.271 911.492 336.751C906.898 333.187 903.435 328.554 901.201 322.984C898.907 317.275 897.743 311.253 897.743 305.085C897.743 298.79 898.904 292.735 901.198 287.093C903.432 281.583 906.896 276.984 911.489 273.417C915.969 269.947 921.63 268.187 928.311 268.187C934.986 268.187 940.608 269.944 945.012 273.403C949.543 276.97 952.976 281.578 955.216 287.093C957.51 292.746 958.671 298.801 958.671 305.088Z" fill="#F08128"/>
<path d="M278.918 217.347C253.022 190.616 216.431 173.929 175.935 173.929C97.626 173.929 33.9158 236.333 33.9158 313.041C33.9158 335.259 39.269 356.26 48.7635 374.906C54.0631 385.321 60.6564 394.987 68.3402 403.724C70.1538 405.782 72.021 407.803 73.9561 409.756C70.3797 413.558 65.4672 416.124 59.9332 416.688C59.1592 416.771 58.371 416.813 57.5744 416.813C50.8681 416.813 44.8708 413.904 40.7831 409.316C39.8792 408.101 38.9921 406.876 38.1221 405.639C19.6076 379.283 8.75146 347.38 8.75146 313.041C8.75146 222.738 83.7501 149.276 175.935 149.276C223.459 149.276 266.42 168.801 296.887 200.096L278.918 217.347ZM315.376 396.144L293.977 390.291C290.76 394.99 287.251 399.484 283.491 403.762C281.262 406.297 278.943 408.76 276.533 411.129C280.409 415.343 285.926 418.066 292.104 418.335C292.438 418.348 292.762 418.384 293.099 418.384C299.732 418.384 305.672 415.531 309.757 411.024C310.593 409.931 311.421 408.826 312.232 407.708C314.709 404.302 317.076 400.812 319.288 397.21L315.376 396.144Z" fill="url(#paint0_linear_10459_23995)"/>
<path d="M293.096 418.386C292.759 418.386 292.437 418.35 292.101 418.336C285.92 418.065 280.403 415.345 276.53 411.13C274.581 409 273.05 406.506 272.067 403.756C271.657 402.616 271.347 401.434 271.132 400.225L270.897 399.334L251.948 327.371C251.781 326.439 251.541 325.534 251.236 324.657C248.702 317.396 241.694 312.163 233.419 312.163C225.945 312.163 219.507 316.441 216.464 322.623C216.007 323.55 215.62 324.518 215.326 325.534L176.336 425.182L133.768 324.79C133.31 322.988 132.581 321.286 131.624 319.739C128.324 314.39 122.349 310.804 115.508 310.804C107.796 310.804 101.177 315.348 98.2614 321.84C97.3857 323.804 96.8575 325.932 96.7247 328.171L79.4165 399.414H79.4108C78.5775 403.36 76.6424 406.905 73.9559 409.758C70.3796 413.56 65.467 416.125 59.933 416.69C59.159 416.773 58.3709 416.814 57.5742 416.814C50.8679 416.814 44.8706 413.906 40.783 409.318C47.8142 418.765 55.851 427.443 64.7382 435.216C66.3682 436.641 68.0179 438.05 69.7016 439.414C69.8259 439.517 69.9586 439.605 70.0886 439.71C73.4898 441.769 77.4814 442.978 81.7724 442.978C90.2839 442.978 97.6795 438.302 101.434 431.431C101.781 430.8 102.092 430.144 102.375 429.483L103.996 422.578L119.262 357.526L161.003 451.396C165.912 451.895 170.893 452.163 175.935 452.163C181.153 452.163 186.308 451.875 191.385 451.333L231.959 357.526L247.911 423.94L248.956 428.284C249.346 429.391 249.807 430.462 250.363 431.47C254.129 438.321 261.51 442.976 270.008 442.976C274.245 442.976 278.186 441.794 281.556 439.791C281.694 439.71 281.833 439.633 281.968 439.55C283.562 438.263 285.132 436.951 286.675 435.609C295.197 428.215 302.921 419.958 309.757 411.02C305.669 415.53 299.729 418.386 293.096 418.386Z" fill="url(#paint1_linear_10459_23995)"/>
<path d="M239.304 225.745L203.744 188.448L144.98 190.759L144.867 187.991L204.925 185.631L241.369 223.86L239.304 225.745Z" fill="#106C76"/>
<path d="M276.892 321.262L232.806 290.042L191.876 290.111L153.051 312.022L152.827 311.087L97.9195 295.839L59.4414 273.167L61.5205 272.212L101.937 219.383L145.048 188.835L177.78 209.8L203.475 186.788L212.272 218.071L180.712 253.03L206.899 264.616L240.148 223.609L266.762 246.233L261.581 283.279L276.892 321.262ZM233.719 287.274L270.714 313.475L258.68 283.616L263.753 247.34L240.524 227.591L207.744 268.026L176.059 254.009L209.145 217.366L201.981 191.879L178.074 213.292L145.129 192.192L103.767 221.503L66.9528 269.719L97.4732 255.711L145.084 266.141L154.94 307.763L191.116 287.344L233.719 287.274ZM99.2162 293.373L152.099 308.009L142.734 268.46L97.7981 258.62L65.4387 273.469L99.2162 293.373Z" fill="#106C76"/>
<path d="M161.661 232.815H125.575V235.582H161.661V232.815Z" fill="#106C76"/>
<path d="M101.889 230.886C107.649 230.886 112.318 226.312 112.318 220.67C112.318 215.027 107.649 210.453 101.889 210.453C96.1285 210.453 91.459 215.027 91.459 220.67C91.459 226.312 96.1285 230.886 101.889 230.886Z" fill="#FE6200"/>
<path d="M122.4 244.07C127.966 244.07 132.477 239.65 132.477 234.199C132.477 228.747 127.966 224.328 122.4 224.328C116.835 224.328 112.324 228.747 112.324 234.199C112.324 239.65 116.835 244.07 122.4 244.07Z" fill="#8ABE21"/>
<path d="M161.661 241.656C165.866 241.656 169.274 238.318 169.274 234.199C169.274 230.08 165.866 226.741 161.661 226.741C157.456 226.741 154.048 230.08 154.048 234.199C154.048 238.318 157.456 241.656 161.661 241.656Z" fill="#D8DC30"/>
<path fill-rule="evenodd" clip-rule="evenodd" d="M189.659 254.472C188.772 260.82 182.8 265.253 176.325 264.384C169.845 263.52 165.313 257.67 166.2 251.32C167.088 244.98 173.059 240.538 179.54 241.407C186.014 242.274 190.546 248.132 189.659 254.472Z" fill="#39B9CF"/>
<path fill-rule="evenodd" clip-rule="evenodd" d="M217.792 266.747C217.21 270.906 213.297 273.815 209.057 273.25C204.817 272.674 201.848 268.842 202.43 264.691C203.012 260.532 206.922 257.629 211.165 258.196C215.402 258.761 218.374 262.596 217.792 266.747Z" fill="#017684"/>
<path d="M209.933 224.801C213.67 224.801 216.699 221.834 216.699 218.174C216.699 214.513 213.67 211.546 209.933 211.546C206.197 211.546 203.167 214.513 203.167 218.174C203.167 221.834 206.197 224.801 209.933 224.801Z" fill="#EB640E"/>
<path d="M176.689 220.578C182.529 220.578 187.263 215.941 187.263 210.221C187.263 204.5 182.529 199.863 176.689 199.863C170.85 199.863 166.116 204.5 166.116 210.221C166.116 215.941 170.85 220.578 176.689 220.578Z" fill="#A0C203"/>
<path fill-rule="evenodd" clip-rule="evenodd" d="M211.074 188.738C210.563 192.383 207.131 194.94 203.408 194.445C199.687 193.938 197.083 190.579 197.594 186.929C198.105 183.287 201.535 180.733 205.255 181.231C208.978 181.735 211.583 185.1 211.074 188.738Z" fill="#F4D700"/>
<path d="M144.921 197.104C149.28 197.104 152.813 193.642 152.813 189.372C152.813 185.102 149.28 181.641 144.921 181.641C140.562 181.641 137.028 185.102 137.028 189.372C137.028 193.642 140.562 197.104 144.921 197.104Z" fill="#F9920C"/>
<path d="M97.2783 264.306C101.288 264.306 104.538 261.122 104.538 257.195C104.538 253.267 101.288 250.083 97.2783 250.083C93.2687 250.083 90.0183 253.267 90.0183 257.195C90.0183 261.122 93.2687 264.306 97.2783 264.306Z" fill="#26BFCE"/>
<path fill-rule="evenodd" clip-rule="evenodd" d="M81.0238 272.301C80.0436 279.291 73.4672 284.181 66.3173 283.215C59.176 282.257 54.1844 275.815 55.1618 268.825C56.1364 261.83 62.7212 256.934 69.8654 257.886C77.0068 258.849 81.9956 265.303 81.0238 272.301Z" fill="#F4E039"/>
<path d="M98.6343 306.086C104.749 306.086 109.705 301.231 109.705 295.241C109.705 289.252 104.749 284.396 98.6343 284.396C92.5201 284.396 87.5635 289.252 87.5635 295.241C87.5635 301.231 92.5201 306.086 98.6343 306.086Z" fill="#106C76"/>
<path d="M142.867 280.392C149.717 280.392 155.271 274.952 155.271 268.241C155.271 261.531 149.717 256.09 142.867 256.09C136.016 256.09 130.463 261.531 130.463 268.241C130.463 274.952 136.016 280.392 142.867 280.392Z" fill="#F39D00"/>
<path fill-rule="evenodd" clip-rule="evenodd" d="M162.785 308.707C163.418 304.163 160.169 299.965 155.522 299.34C150.878 298.711 146.596 301.905 145.96 306.449C145.322 311.001 148.573 315.199 153.217 315.827C157.864 316.441 162.144 313.262 162.785 308.707Z" fill="#8ABE21"/>
<path fill-rule="evenodd" clip-rule="evenodd" d="M197.523 290.227C196.995 294.004 193.438 296.642 189.58 296.127C185.724 295.607 183.026 292.128 183.554 288.345C184.082 284.576 187.636 281.931 191.495 282.446C195.351 282.966 198.052 286.447 197.523 290.227Z" fill="#9FC404"/>
<path d="M233.261 298.96C238.711 298.96 243.129 294.633 243.129 289.295C243.129 283.956 238.711 279.629 233.261 279.629C227.812 279.629 223.394 283.956 223.394 289.295C223.394 294.633 227.812 298.96 233.261 298.96Z" fill="#FBDE00"/>
<path d="M273.802 322.18C277.226 322.18 280.002 319.461 280.002 316.106C280.002 312.752 277.226 310.032 273.802 310.032C270.377 310.032 267.601 312.752 267.601 316.106C267.601 319.461 270.377 322.18 273.802 322.18Z" fill="#E06627"/>
<path d="M259.858 289.283C263.282 289.283 266.058 286.564 266.058 283.209C266.058 279.855 263.282 277.135 259.858 277.135C256.433 277.135 253.657 279.855 253.657 283.209C253.657 286.564 256.433 289.283 259.858 289.283Z" fill="#D8DC30"/>
<path fill-rule="evenodd" clip-rule="evenodd" d="M247.115 225.958C246.609 229.58 243.196 232.115 239.496 231.617C235.795 231.119 233.202 227.782 233.71 224.156C234.219 220.523 237.631 217.988 241.332 218.484C245.033 218.982 247.623 222.325 247.115 225.958Z" fill="#3DBECA"/>
<path fill-rule="evenodd" clip-rule="evenodd" d="M255.278 244.883C254.581 249.872 258.14 254.472 263.231 255.155C268.321 255.833 273.016 252.349 273.714 247.357C274.412 242.376 270.847 237.777 265.759 237.093C260.666 236.41 255.976 239.899 255.278 244.883Z" fill="#95C510"/>
<defs>
<linearGradient id="paint0_linear_10459_23995" x1="100.1" y1="170.172" x2="232.287" y2="445.473" gradientUnits="userSpaceOnUse">
<stop stop-color="#74BB2D"/>
<stop offset="1" stop-color="#4F872D"/>
</linearGradient>
<linearGradient id="paint1_linear_10459_23995" x1="169.355" y1="316.254" x2="177.529" y2="451.506" gradientUnits="userSpaceOnUse">
<stop stop-color="#F28824"/>
<stop offset="1" stop-color="#E85329"/>
</linearGradient>
</defs>
</svg>
